<?xml version="1.0" standalone="no"?>
<!DOCTYPE svg PUBLIC "-//W3C//DTD SVG 20010904//EN"
 "http://www.w3.org/TR/2001/REC-SVG-20010904/DTD/svg10.dtd">
<svg version="1.0" xmlns="http://www.w3.org/2000/svg"
 width="80.000000pt" height="80.000000pt" viewBox="0 0 80.000000 80.000000"
 preserveAspectRatio="xMidYMid meet">
<metadata>
Created by potrace 1.16, written by Peter Selinger 2001-2019
</metadata>
<g transform="translate(0.000000,80.000000) scale(0.035556,-0.035556)"
fill="#000000" stroke="none">
<path d="M992 1038 c69 -92 118 -167 118 -179 0 -8 -32 -89 -70 -182 l-70
-167 72 -103 c40 -57 78 -104 83 -104 6 0 43 47 83 104 l72 103 -70 167 c-38
93 -70 174 -70 182 0 12 49 87 118 179 l24 32 -157 0 -157 0 24 -32z"/>
</g>
</svg>
