<?xml version="1.0" standalone="no"?>
<!DOCTYPE svg PUBLIC "-//W3C//DTD SVG 20010904//EN"
 "http://www.w3.org/TR/2001/REC-SVG-20010904/DTD/svg10.dtd">
<svg version="1.0" xmlns="http://www.w3.org/2000/svg"
 width="80.000000pt" height="80.000000pt" viewBox="0 0 80.000000 80.000000"
 preserveAspectRatio="xMidYMid meet">
<metadata>
Created by potrace 1.16, written by Peter Selinger 2001-2019
</metadata>
<g transform="translate(0.000000,80.000000) scale(0.034632,-0.036697)"
fill="#000000" stroke="none">
<path d="M1085 2173 c-168 -22 -321 -126 -382 -260 -22 -48 -27 -76 -31 -168
-4 -92 -9 -118 -30 -160 -30 -60 -40 -154 -23 -222 18 -72 66 -174 136 -292
83 -141 91 -159 100 -211 10 -59 27 -91 69 -127 110 -97 363 -107 478 -20 61
47 79 77 87 145 5 43 17 76 41 114 159 252 193 322 211 427 11 71 3 123 -31
191 -24 48 -28 67 -28 145 0 103 -21 175 -71 248 -95 138 -316 218 -526 190z"/>
<path d="M1612 608 c-16 -46 -75 -201 -130 -345 l-100 -263 464 0 464 0 0 103
c0 131 -15 232 -40 272 -24 40 -84 72 -230 125 -121 45 -237 99 -331 156 -31
19 -59 34 -61 34 -3 0 -19 -37 -36 -82z"/>
<path d="M615 628 c-82 -51 -272 -142 -402 -192 -188 -73 -198 -87 -206 -308
l-5 -128 465 0 c439 0 465 1 458 18 -4 9 -58 150 -120 312 -62 162 -116 303
-120 313 -9 22 -11 22 -70 -15z"/>
<path d="M1025 558 c-31 -18 -35 -28 -35 -99 0 -74 16 -99 63 -99 34 0 34 2
-3 -189 -17 -85 -30 -158 -30 -163 0 -4 61 -8 135 -8 74 0 135 2 135 4 0 2
-13 75 -30 162 -37 198 -37 194 -2 194 46 0 62 27 62 101 0 100 -4 103 -152
107 -81 1 -130 -2 -143 -10z"/>
</g>
</svg>
