<?xml version="1.0" standalone="no"?>
<!DOCTYPE svg PUBLIC "-//W3C//DTD SVG 20010904//EN"
 "http://www.w3.org/TR/2001/REC-SVG-20010904/DTD/svg10.dtd">
<svg version="1.0" xmlns="http://www.w3.org/2000/svg"
 width="80.000000pt" height="80.000000pt" viewBox="0 0 80.000000 80.000000"
 preserveAspectRatio="xMidYMid meet">
<metadata>
Created by potrace 1.16, written by Peter Selinger 2001-2019
</metadata>
<g transform="translate(0.000000,80.000000) scale(0.062500,-0.062500)"
fill="#000000" stroke="none">
<path d="M488 1261 c-13 -11 -53 -63 -88 -117 l-64 -97 -4 -128 -4 -128 -37
-29 c-20 -16 -45 -48 -55 -71 -17 -36 -18 -53 -10 -143 8 -97 10 -103 32 -106
l23 -4 -6 109 c-7 103 -6 110 16 140 21 29 382 336 429 365 14 9 24 8 44 -5
48 -32 36 -57 -75 -152 -56 -47 -117 -97 -138 -110 -63 -41 -135 -110 -127
-123 14 -22 41 -12 99 38 32 28 63 50 67 50 17 0 189 -151 195 -171 5 -14 1
-28 -11 -40 -19 -18 -21 -17 -87 36 -69 56 -87 62 -129 46 -37 -14 -143 -116
-134 -129 13 -22 38 -12 96 38 32 28 64 50 72 50 18 0 198 -157 198 -173 0
-23 -31 -57 -52 -57 -12 0 -42 17 -67 38 -87 71 -79 68 -106 42 -14 -13 -25
-30 -25 -37 0 -19 27 -28 44 -14 10 9 17 7 27 -6 30 -36 93 -73 125 -73 40 0
90 40 99 79 7 31 -5 70 -30 94 -9 10 -11 17 -5 17 18 0 40 66 34 99 -4 19 -25
47 -52 72 l-45 42 18 96 c15 82 23 102 51 134 22 24 34 47 34 66 0 29 26 46
55 35 23 -9 25 -32 14 -155 l-11 -119 34 -72 c29 -64 33 -82 33 -158 0 -67 -5
-96 -23 -138 -24 -56 -22 -72 7 -72 33 0 66 109 66 215 0 81 -3 97 -34 162
l-33 72 10 122 c10 103 9 126 -4 150 -16 33 -48 44 -104 36 -27 -3 -43 -1 -51
9 -7 8 -30 14 -58 14 -43 0 -54 -5 -119 -60 -39 -33 -74 -60 -77 -60 -3 0 2
13 11 29 18 30 14 61 -8 61 -22 -1 -52 -53 -58 -99 -4 -38 -12 -50 -59 -89
l-53 -46 3 99 4 100 64 93 c73 107 91 121 127 97 27 -18 31 -51 9 -81 -21 -28
-19 -54 5 -54 26 0 60 55 60 98 0 49 -46 92 -98 92 -24 0 -49 -8 -64 -19z"/>
<path d="M244 359 c8 -52 33 -99 90 -173 44 -56 46 -61 46 -123 0 -61 1 -64
23 -61 20 3 22 9 25 74 l3 70 -56 70 c-47 58 -72 107 -91 172 -2 6 -13 12 -25
12 -20 0 -21 -4 -15 -41z"/>
</g>
</svg>
