<?xml version="1.0" standalone="no"?>
<!DOCTYPE svg PUBLIC "-//W3C//DTD SVG 20010904//EN"
 "http://www.w3.org/TR/2001/REC-SVG-20010904/DTD/svg10.dtd">
<svg version="1.0" xmlns="http://www.w3.org/2000/svg"
 width="10.000000pt" height="10.000000pt" viewBox="0 0 10.000000 10.000000"
 preserveAspectRatio="xMidYMid meet">
<metadata>
Created by potrace 1.16, written by Peter Selinger 2001-2019
</metadata>
<g transform="translate(0.000000,10.000000) scale(0.001953,-0.001953)"
fill="#000000" stroke="none">
<path d="M345 4465 c-160 -50 -282 -174 -331 -334 -21 -69 -21 -3073 0 -3142
50 -163 172 -285 335 -335 69 -21 4353 -21 4422 0 163 50 285 172 335 335 21
69 21 3073 0 3142 -50 163 -172 285 -335 335 -65 20 -4364 19 -4426 -1z m3709
-314 c-50 -46 -1486 -1171 -1494 -1171 -8 0 -1444 1125 -1494 1171 -6 5 655 9
1494 9 839 0 1500 -4 1494 -9z m-2441 -1274 l947 -729 948 729 c521 401 953
732 959 737 10 6 13 -262 13 -1323 l0 -1331 -1920 0 -1920 0 0 1331 c0 1061 3
1329 13 1323 6 -5 438 -336 960 -737z"/>
</g>
</svg>
