<?xml version="1.0" standalone="no"?>
<!DOCTYPE svg PUBLIC "-//W3C//DTD SVG 20010904//EN"
 "http://www.w3.org/TR/2001/REC-SVG-20010904/DTD/svg10.dtd">
<svg version="1.0" xmlns="http://www.w3.org/2000/svg"
 width="80.000000pt" height="80.000000pt" viewBox="0 0 80.000000 80.000000"
 preserveAspectRatio="xMidYMid meet">
<metadata>
Created by potrace 1.16, written by Peter Selinger 2001-2019
</metadata>
<g transform="translate(0.000000,80.000000) scale(0.015625,-0.015625)"
fill="#000000" stroke="none">
<path d="M2300 5113 c-485 -50 -967 -246 -1350 -551 -523 -417 -871 -1057
-941 -1730 -17 -170 -7 -546 20 -695 47 -266 116 -478 231 -714 249 -510 652
-913 1165 -1164 363 -178 717 -259 1135 -259 429 0 774 80 1151 267 497 246
898 648 1148 1152 115 233 201 508 243 781 18 115 18 605 0 720 -73 470 -265
911 -553 1267 -81 100 -262 281 -362 362 -380 307 -860 508 -1339 560 -89 10
-465 13 -548 4z m491 -243 c942 -95 1738 -765 2003 -1687 64 -223 80 -347 80
-623 0 -212 -3 -263 -23 -375 -54 -306 -162 -590 -322 -848 -176 -283 -463
-570 -746 -746 -505 -313 -1108 -423 -1680 -305 -1081 221 -1863 1176 -1863
2274 0 1009 661 1907 1631 2215 130 41 316 81 440 94 121 12 360 13 480 1z"/>
<path d="M3450 3379 c-21 -13 -240 -267 -558 -650 -288 -346 -527 -629 -532
-629 -4 0 -149 118 -322 261 -172 144 -327 268 -345 275 -72 31 -170 4 -214
-57 -20 -28 -24 -46 -24 -104 0 -52 5 -78 18 -99 21 -31 783 -668 827 -691 36
-19 111 -19 153 -1 18 7 48 31 68 52 99 105 1173 1393 1185 1421 32 73 1 177
-65 220 -46 31 -141 32 -191 2z"/>
</g>
</svg>
